:FULLY-SPECIFIED
:FORCE-ALL-JOINTS-BE-3DOF
:DEGREES
544
root 8.24573 13.9135 -3.52315 -180.902 46.9926 -183.188
lfemur -33.7294 -5.98954 -16.2496
ltibia 89.3721 0 0
lfoot -39.3337 -10.9093 0
ltoes -5.47729 0 0
rfemur -49.0008 -8.29138 -3.37407
rtibia 64.934 0 0
rfoot -11.1653 1.06041 0
rtoes -39.3966 0 0
lowerback 13.2837 1.13785 1.49893
upperback 7.11313 2.67731 7.14087
thorax -0.23804 1.62963 6.31313
lowerneck -2.13554 -16.0074 -6.07621
upperneck 9.1169 -21.7426 8.75665
head 4.71637 -10.4962 2.28787
lclavicle 4.91936e-15 -1.3974e-14 0
lhumerus -45.4329 -12.348 104.104
lradius 56.5833 0 0
lwrist 31.1544 0 0
lhand -24.8867 -2.61707 0
lfingers 7.12502 0 0
lthumb 1.62099 27.3575 0
rclavicle 4.91936e-15 -1.3974e-14 0
rhumerus 4.69164 18.2117 -90.871
rradius 135.744 0 0
rwrist -46.2887 0 0
rhand -30.6746 -24.2155 0
rfingers 7.12502 0 0
rthumb -3.96888 -774.155 0
545
root 8.28422 13.9055 -3.4962 -180.817 46.7152 -183.059
lfemur -33.764 -6.02659 -15.7786
ltibia 89.3714 0 0
lfoot -39.4517 -11.8918 0
ltoes -4.68512 0 0
rfemur -49.0922 -8.34298 -3.18075
rtibia 65.3283 0 0
rfoot -11.1155 0.803407 0
rtoes -39.3034 0 0
lowerback 13.2018 0.94871 1.60133
upperback 7.08521 2.42641 7.03729
thorax -0.189612 1.50473 6.17961
lowerneck -2.0157 -15.871 -5.96428
upperneck 8.75726 -21.5553 8.79113
head 4.56384 -10.4195 2.32739
lclavicle 4.93775e-14 -7.12147e-15 0
lhumerus -45.6614 -11.9498 103.723
lradius 56.0964 0 0
lwrist 31.4492 0 0
lhand -24.7747 -2.59529 0
lfingers 7.12502 0 0
lthumb 1.72912 27.3779 0
rclavicle 4.93775e-14 -7.12147e-15 0
rhumerus 5.05607 18.876 -90.414
rradius 135.316 0 0
rwrist -45.7133 0 0
rhand -30.1527 -23.7119 0
rfingers 7.12502 0 0
rthumb -3.46483 -773.661 0
546
root 8.31669 13.9089 -3.47167 -180.729 46.5105 -182.945
lfemur -33.7402 -6.00144 -15.3715
ltibia 89.2305 0 0
lfoot -39.5364 -12.7239 0
ltoes -4.03332 0 0
rfemur -49.1289 -8.29123 -3.00451
rtibia 65.5324 0 0
rfoot -10.9687 0.542513 0
rtoes -39.2094 0 0
lowerback 13.1022 0.766531 1.66295
upperback 7.03836 2.17618 6.92507
thorax -0.153132 1.3779 6.0593
lowerneck -1.91357 -15.7452 -5.86375
upperneck 8.4465 -21.3825 8.80765
head 4.42968 -10.3484 2.35823
lclavicle 8.28057e-14 -2.41089e-16 0
lhumerus -45.8587 -11.57 103.367
lradius 55.6353 0 0
lwrist 31.6035 0 0
lhand -24.6841 -2.60616 0
lfingers 7.12502 0 0
lthumb 1.81663 27.366 0
rclavicle 8.28057e-14 -2.41089e-16 0
rhumerus 5.52897 19.4106 -89.9035
rradius 134.962 0 0
rwrist -45.2041 0 0
rhand -29.6667 -23.2421 0
rfingers 7.12502 0 0
rthumb -2.99556 -773.2 0
547
root 8.3426 13.9245 -3.44966 -180.653 46.3973 -182.868
lfemur -33.6469 -5.88619 -15.0556
ltibia 88.9407 0 0
lfoot -39.5906 -13.3481 0
ltoes -3.60323 0 0
rfemur -49.0997 -8.13052 -2.84987
rtibia 65.5231 0 0
rfoot -10.7566 0.259778 0
rtoes -39.0929 0 0
lowerback 12.986 0.604552 1.66225
upperback 6.9725 1.94136 6.80527
thorax -0.131767 1.25582 5.96331
lowerneck -1.83125 -15.6388 -5.78109
upperneck 8.20244 -21.237 8.80926
head 4.32172 -10.2881 2.37983
lclavicle 9.85972e-14 6.36111e-15 0
lhumerus -46.01 -11.1851 103.032
lradius 55.2192 0 0
lwrist 31.5909 0 0
lhand -24.6475 -2.6444 0
lfingers 7.12502 0 0
lthumb 1.85197 27.3273 0
rclavicle 9.85972e-14 6.36111e-15 0
rhumerus 6.08594 19.7702 -89.381
rradius 134.72 0 0
rwrist -44.7914 0 0
rhand -29.263 -22.8451 0
rfingers 7.12502 0 0
rthumb -2.6057 -772.809 0
548
root 8.36252 13.9532 -3.42983 -180.598 46.344 -182.832
lfemur -33.4875 -5.69079 -14.8312
ltibia 88.5046 0 0
lfoot -39.6013 -13.7712 0
ltoes -3.40074 0 0
rfemur -48.9904 -7.81125 -2.73638
rtibia 65.3127 0 0
rfoot -10.4651 -0.104634 0
rtoes -38.9714 0 0
lowerback 12.8483 0.454833 1.59287
upperback 6.88369 1.70911 6.67183
thorax -0.126179 1.13142 5.8905
lowerneck -1.76877 -15.5518 -5.72233
upperneck 8.02801 -21.1188 8.79632
head 4.24147 -10.2386 2.39283
lclavicle 9.21526e-14 1.45536e-14 0
lhumerus -46.1149 -10.8031 102.721
lradius 54.8308 0 0
lwrist 31.3323 0 0
lhand -24.6531 -2.72267 0
lfingers 7.12502 0 0
lthumb 1.84661 27.2491 0
rclavicle 9.21526e-14 1.45536e-14 0
rhumerus 6.78912 19.9244 -88.7987
rradius 134.61 0 0
rwrist -44.4745 0 0
rhand -28.9157 -22.4935 0
rfingers 7.12502 0 0
rthumb -2.27027 -772.462 0
549
root 8.37711 13.9946 -3.41198 -180.552 46.3232 -182.818
lfemur -33.2728 -5.44339 -14.6739
ltibia 87.9306 0 0
lfoot -39.5616 -14.0465 0
ltoes -3.35549 0 0
rfemur -48.8064 -7.3219 -2.66653
rtibia 64.926 0 0
rfoot -10.0614 -0.554718 0
rtoes -38.8701 0 0
lowerback 12.6867 0.302957 1.47183
upperback 6.77072 1.46203 6.52177
thorax -0.133773 0.996383 5.83062
lowerneck -1.72429 -15.4764 -5.68376
upperneck 7.9083 -21.0162 8.76625
head 4.1825 -10.1952 2.39792
lclavicle 6.78116e-14 2.52312e-14 0
lhumerus -46.1865 -10.4473 102.438
lradius 54.4474 0 0
lwrist 30.8247 0 0
lhand -24.6678 -2.84986 0
lfingers 7.12502 0 0
lthumb 1.83241 27.1221 0
rclavicle 6.78116e-14 2.52312e-14 0
rhumerus 7.68093 19.9035 -88.1041
rradius 134.604 0 0
rwrist -44.2258 0 0
rhand -28.575 -22.1435 0
rfingers 7.12502 0 0
rthumb -1.94128 -772.115 0
550
root 8.38596 14.0476 -3.39642 -180.501 46.3602 -182.816
lfemur -33.0032 -5.14332 -14.5742
ltibia 87.219 0 0
lfoot -39.4837 -14.1862 0
ltoes -3.4345 0 0
rfemur -48.5654 -6.71393 -2.61927
rtibia 64.3582 0 0
rfoot -9.54886 -1.02466 0
rtoes -38.7788 0 0
lowerback 12.5055 0.152453 1.31266
upperback 6.63755 1.20805 6.36082
thorax -0.152832 0.85557 5.78111
lowerneck -1.69706 -15.4098 -5.65719
upperneck 7.83447 -20.9252 8.71765
head 4.14066 -10.1562 2.39464
lclavicle 3.23758e-14 3.66274e-14 0
lhumerus -46.2303 -10.1177 102.181
lradius 54.08 0 0
lwrist 30.1559 0 0
lhand -24.6926 -3.01507 0
lfingers 7.12502 0 0
lthumb 1.80841 26.9571 0
rclavicle 3.23758e-14 3.66274e-14 0
rhumerus 8.70736 19.7529 -87.331
rradius 134.67 0 0
rwrist -44.0362 0 0
rhand -28.2515 -21.8093 0
rfingers 7.12502 0 0
rthumb -1.62884 -771.783 0
551
root 8.3887 14.111 -3.38347 -180.433 46.4804 -182.814
lfemur -32.679 -4.78994 -14.5229
ltibia 86.3703 0 0
lfoot -39.3799 -14.2029 0
ltoes -3.60476 0 0
rfemur -48.2853 -6.03881 -2.57354
rtibia 63.6049 0 0
rfoot -8.93115 -1.44863 0
rtoes -38.6872 0 0
lowerback 12.3092 0.00684623 1.12892
upperback 6.48813 0.955105 6.19468
thorax -0.181639 0.713829 5.73942
lowerneck -1.68636 -15.3489 -5.63443
upperneck 7.79766 -20.8415 8.64916
head 4.11184 -10.1199 2.38254
lclavicle -7.35331e-15 4.69758e-14 0
lhumerus -46.2515 -9.81423 101.948
lradius 53.7394 0 0
lwrist 29.4141 0 0
lhand -24.7286 -3.20743 0
lfingers 7.12502 0 0
lthumb 1.77367 26.765 0
rclavicle -7.35331e-15 4.69758e-14 0
rhumerus 9.81439 19.518 -86.5133
rradius 134.776 0 0
rwrist -43.8962 0 0
rhand -27.9556 -21.5055 0
rfingers 7.12502 0 0
rthumb -1.34303 -771.481 0
552
root 8.38493 14.1837 -3.37343 -180.333 46.709 -182.801
lfemur -32.3006 -4.38257 -14.5105
ltibia 85.3848 0 0
lfoot -39.2623 -14.1088 0
ltoes -3.83329 0 0
rfemur -47.984 -5.34799 -2.50829
rtibia 62.6614 0 0
rfoot -8.21173 -1.76082 0
rtoes -38.585 0 0
lowerback 12.1024 -0.130335 0.934145
upperback 6.32644 0.711126 6.02907
thorax -0.218474 0.576013 5.70298
lowerneck -1.69147 -15.2909 -5.60726
upperneck 7.78901 -20.7611 8.55938
head 4.09192 -10.0845 2.36117
lclavicle -4.45741e-14 5.45099e-14 0
lhumerus -46.2555 -9.53677 101.737
lradius 53.4364 0 0
lwrist 28.687 0 0
lhand -24.7767 -3.41604 0
lfingers 7.12502 0 0
lthumb 1.72724 26.5568 0
rclavicle -4.45741e-14 5.45099e-14 0
rhumerus 10.948 19.2441 -85.6847
rradius 134.889 0 0
rwrist -43.7967 0 0
rhand -27.6977 -21.2464 0
rfingers 7.12502 0 0
rthumb -1.09396 -771.223 0
553
root 8.37426 14.2646 -3.36662 -180.188 47.0715 -182.766
lfemur -31.8684 -3.92055 -14.5278
ltibia 84.2628 0 0
lfoot -39.143 -13.9165 0
ltoes -4.08708 0 0
rfemur -47.6792 -4.69296 -2.40247
rtibia 61.5232 0 0
rfoot -7.3941 -1.8954 0
rtoes -38.4621 0 0
lowerback 11.8893 -0.255563 0.741887
upperback 6.15642 0.484042 5.8697
thorax -0.261621 0.446974 5.66924
lowerneck -1.71164 -15.2327 -5.56751
upperneck 7.79966 -20.6797 8.44693
head 4.07677 -10.0483 2.33009
lclavicle -7.24851e-14 5.74632e-14 0
lhumerus -46.2474 -9.28524 101.547
lradius 53.1819 0 0
lwrist 28.0629 0 0
lhand -24.8379 -3.63001 0
lfingers 7.12502 0 0
lthumb 1.66817 26.3433 0
rclavicle -7.24851e-14 5.74632e-14 0
rhumerus 12.0542 18.9768 -84.8792
rradius 134.976 0 0
rwrist -43.7284 0 0
rhand -27.4884 -21.0463 0
rfingers 7.12502 0 0
rthumb -0.89172 -771.024 0
554
root 8.3563 14.3525 -3.36333 -179.986 47.593 -182.697
lfemur -31.3826 -3.40324 -14.5653
ltibia 83.0047 0 0
lfoot -39.0343 -13.6383 0
ltoes -4.33316 0 0
rfemur -47.3889 -4.12517 -2.23502
rtibia 60.1858 0 0
rfoot -6.48177 -1.78657 0
rtoes -38.3081 0 0
lowerback 11.6746 -0.365311 0.565689
upperback 5.98204 0.281785 5.72228
thorax -0.309362 0.331563 5.63564
lowerneck -1.74615 -15.1715 -5.50697
upperneck 7.82076 -20.5932 8.31043
head 4.06227 -10.0094 2.28884
lclavicle -8.42847e-14 5.40694e-14 0
lhumerus -46.2327 -9.05955 101.374
lradius 52.9867 0 0
lwrist 27.6295 0 0
lhand -24.9131 -3.83845 0
lfingers 7.12502 0 0
lthumb 1.5955 26.1353 0
rclavicle -8.42847e-14 5.40694e-14 0
rhumerus 13.0789 18.7614 -84.1306
rradius 135.006 0 0
rwrist -43.6819 0 0
rhand -27.3379 -20.9198 0
rfingers 7.12502 0 0
rthumb -0.746403 -770.898 0
555
root 8.32954 14.4524 -3.36427 -179.732 48.2841 -182.603
lfemur -30.8254 -2.7747 -14.6325
ltibia 81.5743 0 0
lfoot -38.9383 -13.2649 0
ltoes -4.64413 0 0
rfemur -47.0685 -3.55855 -2.04325
rtibia 58.5309 0 0
rfoot -5.43842 -1.39981 0
rtoes -38.1002 0 0
lowerback 11.4557 -0.460538 0.396719
upperback 5.79716 0.10078 5.58476
thorax -0.36667 0.227339 5.60523
lowerneck -1.79401 -15.1108 -5.4202
upperneck 7.86378 -20.5061 8.13665
head 4.05008 -9.96998 2.23231
lclavicle -7.74101e-14 4.14051e-14 0
lhumerus -46.2038 -8.83345 101.238
lradius 52.8509 0 0
lwrist 27.4375 0 0
lhand -25.0441 -4.05821 0
lfingers 7.12502 0 0
lthumb 1.46897 25.9164 0
rclavicle -7.74101e-14 4.14051e-14 0
rhumerus 14.0446 18.566 -83.4258
rradius 134.983 0 0
rwrist -43.6828 0 0
rhand -27.2715 -20.8918 0
rfingers 7.12502 0 0
rthumb -0.682302 -770.871 0
